<?xml version="1.0" encoding="UTF-8" standalone="no"?>
<!-- Created with Inkscape (http://www.inkscape.org/) -->
<svg id="svg2" xmlns:rdf="http://www.w3.org/1999/02/22-rdf-syntax-ns#" height="250" xmlns="http://www.w3.org/2000/svg" viewBox="0 0 250 250" width="250" version="1.0" xmlns:cc="http://creativecommons.org/ns#" xmlns:dc="http://purl.org/dc/elements/1.1/">
 <defs id="defs4">
  <filter id="filter3537" height="1.5149" width="1.6155" y="-.25745" x="-.30775">
   <feGaussianBlur id="feGaussianBlur3539" stdDeviation="13.005789"/>
  </filter>
  <radialGradient id="radialGradient2469" gradientUnits="userSpaceOnUse" cy="606.26" cx="445.44" gradientTransform="matrix(.76430 -1.3868 1.6059 .88504 -3144.6 570.92)" r="189.36">
   <stop id="stop3536" stop-color="#fff" stop-opacity=".32941" offset="0"/>
   <stop id="stop3538" stop-color="#fff" stop-opacity="0" offset="1"/>
  </radialGradient>
 </defs>
 <g id="layer1" transform="translate(-162.4 -536.34)">
  <g id="g2462" transform="matrix(.37842 0 0 .37842 1007.6 544.45)">
   <path id="path2530" opacity=".9" style="color:#000000" d="m-1706 394.51c0 105.89-88.4 191.84-197.2 191.84-108.9 0-199.2-85.97-197.2-191.84 2.6-142.02 111.1-199.87 197.2-363.1 91.4 157.88 197.2 257.2 197.2 363.1z" fill-rule="evenodd" fill-opacity=".52601" fill="#0041f1"/>
   <path id="path3520" opacity=".85" style="color:#000000" d="m-1712.9 394.06c0 101.68-84.8 184.2-189.3 184.2s-191.3-82.54-189.3-184.2c2.5-136.36 106.6-191.91 189.3-348.64 87.8 151.59 189.3 246.96 189.3 348.64z" fill-rule="evenodd" fill="url(#radialGradient2469)"/>
   <path id="path3542" opacity=".69855" style="color:#000000" d="m-1716.1 390.12c0 100.47-83.9 182.01-187.1 182.01-103.3 0-189-81.56-187.1-182.01 2.5-134.74 105.4-189.63 187.1-344.49 56.1 499.6 187.1 244.02 187.1 344.49z" fill-opacity="0"/>
   <path id="path3556" opacity=".699" style="color:#000000" d="m-1706 394.51c0 105.89-88.4 191.84-197.2 191.84-108.9 0-199.2-85.97-197.2-191.84 2.6-142.02 111.1-199.87 197.2-363.1 91.4 157.88 197.2 257.2 197.2 363.1z" fill-opacity="0"/>
   <ellipse id="path3541" opacity="0.364" style="color:#000000" fill-rule="evenodd" fill-opacity=".80058" rx="66.356" ry="35" transform="matrix(.41702 -.49235 .48517 .41724 -2440.8 431.47)" filter="url(#filter3537)" cy="328.33" cx="680.71" fill="#fff"/>
  </g>
 </g>
</svg>
